# xmcd
#
# Track frame offsets:
#	150
#	17333
#	33310
#	48560
#	62340
#	78510
#	91678
#	106413
#	122880
#
# Disc length: 1852
#
# Revision: 2
# Processed by: cddbd v1.5.1PL0 Copyright (c) Steve Scherf et al.
# Submitted via: uFREEDB 1.6.0
# Normalized: r0:TDELIM( - );r1:TSWAP
#
DISCID=63073a09
DTITLE=Various Artist - CDX Vol. 9
DYEAR=1991
DGENRE=Country
TTITLE0=The Bellamy Brothers - All In The Name Of Love
TTITLE1=Mike Reid - As Simple As That
TTITLE2=Sweethearts Of The Rodeo - Hard Headed Man
TTITLE3=Ray Kennedy - I Like The Way It Feels
TTITLE4=Doug Stone - I Thought It Was You
TTITLE5=Mario Martin - Keep It On The Country Side
TTITLE6=Diamond Rio - Mirror Mirror
TTITLE7=McBride And The Ride - Same Old Star
TTITLE8=Shelby Lynne - The Very First Lasting Love
EXTD=
EXTT0=
EXTT1=
EXTT2=
EXTT3=
EXTT4=
EXTT5=
EXTT6=
EXTT7=
EXTT8=
PLAYORDER=
